<svg version="1.2" xmlns="http://www.w3.org/2000/svg" viewBox="0 0 46 45" width="46" height="45"><style>.a{fill:#b3b3b3}</style><path fill-rule="evenodd" class="a" d="m45 25.7h-2v17h1c0.6 0 1 0.5 1 1 0 0.6-0.4 1-1 1h-41c-0.6 0-1-0.4-1-1 0-0.5 0.4-1 1-1h2v-17h-2c-0.8 0-1.5-0.4-1.8-1-0.4-0.7-0.3-1.5 0.1-2.1l11.9-16.4q0.1-0.1 0.2-0.2 0-0.1 0.1-0.1 0.2-0.1 0.5-0.1h15v-4c0-0.6 0.4-1 1-1h6c0.6 0 1 0.4 1 1v4.7l8.9 17.8c0.1 0.3 0.1 0.7 0 1-0.2 0.3-0.6 0.4-0.9 0.4zm-4 0h-14v17h14zm-16 0h-1.4c-0.7 0-1.4-0.4-1.8-1.1l-6-11.9-8.8 12.1v17.9h5v-15c0-0.5 0.4-1 1-1h4c0.6 0 1 0.5 1 1v15h7zm-9.4-18l8 16h19.8l-6.4-12.7v5.7c0 0.6-0.4 1-1 1-0.6 0-1-0.4-1-1v-9.9q0-0.1 0-0.1v-4h-4v14c0 0.6-0.4 1-1 1-0.6 0-1-0.4-1-1v-9zm-12.7 16h2.4l9.5-13.1-1-1.9zm13.1 5h-2v14h2zm21 7h-5c-0.6 0-1-0.5-1-1v-5c0-0.6 0.4-1 1-1h5c0.5 0 1 0.4 1 1v5c0 0.5-0.5 1-1 1zm-4-2h3v-3h-3z"/></svg>