<svg version="1.2" xmlns="http://www.w3.org/2000/svg" viewBox="0 0 34 34" width="34" height="34"><style>.a{fill:#fff}.b{fill:#1f1f56}</style><path fill-rule="evenodd" class="a" d="m17 0c9.4 0 17 7.6 17 17 0 9.4-7.6 17-17 17-9.4 0-17-7.6-17-17 0-9.4 7.6-17 17-17z"/><path fill-rule="evenodd" class="b" d="m21.4 24v-5.7c0-1.3-0.5-2.1-1.4-2.1-0.7 0-1.5 0.4-1.8 1-0.2 0.2-0.2 0.6-0.2 0.9v5.9h-3v-11l2.6 0.2 0.1 1.9h0.1c0.4-0.8 1.5-1.7 3.2-1.7 2.1 0 4 1.4 4 4.5v6.1zm-11.4-11h3v11l-3-0.1zm1.7-0.7c-1 0-1.7-0.7-1.7-1.6 0-0.9 0.7-1.7 1.7-1.7 1.1 0 1.7 0.8 1.7 1.7 0 0.9-0.6 1.6-1.7 1.6z"/></svg>