<svg version="1.2" xmlns="http://www.w3.org/2000/svg" viewBox="0 0 34 34" width="34" height="34"><style>.a{fill:#fff}.b{fill:#1f1f56}</style><path fill-rule="evenodd" class="a" d="m17 0c9.4 0 17 7.6 17 17 0 9.4-7.6 17-17 17-9.4 0-17-7.6-17-17 0-9.4 7.6-17 17-17z"/><path class="b" d="m27 17q0 2.7-1.3 5-1.4 2.3-3.7 3.7-2.3 1.3-5 1.3-1.4 0-2.8-0.4 0.7-1.2 1-2.2 0.1-0.4 0.7-2.7 0.2 0.5 0.9 0.9 0.7 0.4 1.5 0.4 1.6 0 2.8-0.9 1.3-0.9 1.9-2.5 0.7-1.6 0.7-3.5 0-1.5-0.8-2.8-0.7-1.3-2.2-2.1-1.5-0.8-3.3-0.8-1.4 0-2.6 0.3-1.2 0.4-2 1-0.8 0.7-1.4 1.5-0.6 0.8-0.9 1.7-0.3 0.8-0.3 1.7 0 1.4 0.6 2.4 0.5 1 1.5 1.4 0.4 0.2 0.5-0.2 0-0.1 0.1-0.4 0.1-0.3 0.1-0.4 0.1-0.3-0.2-0.6-0.6-0.8-0.6-1.9 0-2 1.3-3.4 1.4-1.4 3.6-1.4 2 0 3.1 1 1.1 1.1 1.1 2.8 0 2.2-0.9 3.8-0.9 1.5-2.3 1.5-0.8 0-1.3-0.5-0.5-0.6-0.3-1.4 0.1-0.5 0.4-1.2 0.2-0.8 0.4-1.4 0.1-0.5 0.1-1 0-0.6-0.3-1-0.4-0.5-1.1-0.5-0.8 0-1.3 0.8-0.6 0.7-0.6 1.8 0 1 0.3 1.6l-1.2 5.5q-0.3 0.9-0.2 2.3-2.7-1.2-4.3-3.7-1.7-2.5-1.7-5.5 0-2.7 1.3-5 1.4-2.3 3.7-3.7 2.3-1.3 5-1.3 2.7 0 5 1.3 2.3 1.4 3.7 3.7 1.3 2.3 1.3 5z"/></svg>