<svg version="1.2" xmlns="http://www.w3.org/2000/svg" viewBox="0 0 32 46" width="32" height="46"><style>.a{fill:#b2b2b2}</style><path fill-rule="evenodd" class="a" d="m31 38h-12v7c0 0.6-0.4 1-1 1h-4c-0.6 0-1-0.4-1-1v-7h-12c-0.4 0-0.7-0.2-0.9-0.6-0.1-0.3-0.1-0.7 0.1-1l7.5-9.4h-5.2c-0.4 0-0.8-0.2-0.9-0.6-0.2-0.4-0.1-0.8 0.2-1.1l8.6-9.3h-3.9c-0.4 0-0.7-0.2-0.9-0.5-0.2-0.4-0.1-0.8 0.1-1.1l9.5-13.5c0.4-0.5 1.2-0.5 1.6 0l9.4 13.4q0.3 0.3 0.3 0.7c0 0.6-0.4 1-1 1q0 0 0 0h-3.9l8.5 9.2c0.3 0.2 0.4 0.5 0.4 0.8 0 0.6-0.4 1-1 1q0 0 0 0h-5.2l7.5 9.4c0.2 0.3 0.2 0.7 0.1 1-0.2 0.4-0.5 0.6-0.9 0.6zm-27.9-2h25.8l-7.4-9.4c-0.3-0.3-0.3-0.7-0.2-1 0.2-0.4 0.6-0.6 0.9-0.6h5l-8.7-9.3c-0.2-0.3-0.3-0.7-0.2-1.1 0.2-0.4 0.6-0.6 1-0.6h4.3l-7.6-10.8-7.6 10.8h4.3c0.4 0 0.8 0.2 1 0.6 0.1 0.4 0 0.8-0.2 1.1l-8.7 9.3h5c0.3 0 0.7 0.2 0.9 0.6 0.1 0.3 0.1 0.7-0.2 1zm11.9 8h2v-6h-2z"/></svg>